<?xml version="1.0" encoding="UTF-8" standalone="no"?>
<!-- Created with Inkscape (http://www.inkscape.org/) -->

<svg
   width="23.5in"
   height="63in"
   viewBox="0 0 596.90001 1600.2"
   version="1.1"
   id="svg5"
   xml:space="preserve"
   inkscape:version="1.2.2 (732a01da63, 2022-12-09)"
   sodipodi:docname="code-of-conduct-and-covid-policy-vertical.svg"
   xmlns:inkscape="http://www.inkscape.org/namespaces/inkscape"
   xmlns:sodipodi="http://sodipodi.sourceforge.net/DTD/sodipodi-0.dtd"
   xmlns="http://www.w3.org/2000/svg"
   xmlns:svg="http://www.w3.org/2000/svg"><sodipodi:namedview
     id="namedview7"
     pagecolor="#ffffff"
     bordercolor="#000000"
     borderopacity="0.25"
     inkscape:showpageshadow="2"
     inkscape:pageopacity="0.0"
     inkscape:pagecheckerboard="0"
     inkscape:deskcolor="#d1d1d1"
     inkscape:document-units="mm"
     showgrid="false"
     inkscape:zoom="0.18849207"
     inkscape:cx="1740.1263"
     inkscape:cy="3273.3473"
     inkscape:window-width="1916"
     inkscape:window-height="1240"
     inkscape:window-x="366"
     inkscape:window-y="0"
     inkscape:window-maximized="0"
     inkscape:current-layer="layer1"
     showguides="true"><inkscape:grid
       type="xygrid"
       id="grid70" /><sodipodi:guide
       position="-1.63592,441.154"
       inkscape:color="rgb(167,0,255)"
       inkscape:label="Measure"
       orientation="-0.00205761,0.999998"
       id="guide10820"
       inkscape:locked="false" /><sodipodi:guide
       position="-1.63592,441.154"
       inkscape:color="rgb(167,0,255)"
       inkscape:label=""
       orientation="-0,1"
       id="guide10822"
       inkscape:locked="false" /><sodipodi:guide
       position="-1.63592,441.154"
       inkscape:color="rgb(167,0,255)"
       inkscape:label="Start"
       orientation="1,0"
       id="guide10824"
       inkscape:locked="false" /><sodipodi:guide
       position="594.655,442.38"
       inkscape:color="rgb(167,0,255)"
       inkscape:label="End"
       orientation="-0,1"
       id="guide10826"
       inkscape:locked="false" /><sodipodi:guide
       position="594.655,442.38"
       inkscape:color="rgb(167,0,255)"
       inkscape:label=""
       orientation="1,0"
       id="guide10828"
       inkscape:locked="false" /><sodipodi:guide
       position="1.63592,441.563"
       inkscape:color="rgb(167,0,255)"
       inkscape:label="Measure"
       orientation="-0.00137931,0.999999"
       id="guide10830"
       inkscape:locked="false" /><sodipodi:guide
       position="1.63592,441.563"
       inkscape:color="rgb(167,0,255)"
       inkscape:label=""
       orientation="-0,1"
       id="guide10832"
       inkscape:locked="false" /><sodipodi:guide
       position="1.63592,441.563"
       inkscape:color="rgb(167,0,255)"
       inkscape:label="Start"
       orientation="1,0"
       id="guide10834"
       inkscape:locked="false" /><sodipodi:guide
       position="594.655,442.38"
       inkscape:color="rgb(167,0,255)"
       inkscape:label="End"
       orientation="-0,1"
       id="guide10836"
       inkscape:locked="false" /><sodipodi:guide
       position="594.655,442.38"
       inkscape:color="rgb(167,0,255)"
       inkscape:label=""
       orientation="1,0"
       id="guide10838"
       inkscape:locked="false" /><sodipodi:guide
       position="1.63592,441.563"
       inkscape:color="rgb(167,0,255)"
       inkscape:label="Measure"
       orientation="-0.00137931,0.999999"
       id="guide10840"
       inkscape:locked="false" /><sodipodi:guide
       position="1.63592,441.563"
       inkscape:color="rgb(167,0,255)"
       inkscape:label=""
       orientation="-0,1"
       id="guide10842"
       inkscape:locked="false" /><sodipodi:guide
       position="1.63592,441.563"
       inkscape:color="rgb(167,0,255)"
       inkscape:label="Start"
       orientation="1,0"
       id="guide10844"
       inkscape:locked="false" /><sodipodi:guide
       position="594.655,442.38"
       inkscape:color="rgb(167,0,255)"
       inkscape:label="End"
       orientation="-0,1"
       id="guide10846"
       inkscape:locked="false" /><sodipodi:guide
       position="594.655,442.38"
       inkscape:color="rgb(167,0,255)"
       inkscape:label=""
       orientation="1,0"
       id="guide10848"
       inkscape:locked="false" /><sodipodi:guide
       position="-143.17579,1204.3611"
       orientation="0,-1"
       id="guide14128"
       inkscape:locked="false" /></sodipodi:namedview><defs
     id="defs2"><style
       id="style10175">
      .cls-1 {
        fill: #231f20;
        stroke: #231f20;
        stroke-miterlimit: 10;
        stroke-width: .5px;
      }
    </style><filter
       style="color-interpolation-filters:sRGB;"
       inkscape:label="Invert"
       id="filter10716"
       x="-0.00074108809"
       y="-0.019809826"
       width="1.0014817"
       height="1.0396197"><feColorMatrix
         values="1 0 0 0 0 0 1 0 0 0 0 0 1 0 0 -0.21 -0.72 -0.07 2 0 "
         result="fbSourceGraphic"
         id="feColorMatrix10714" /><feColorMatrix
         result="fbSourceGraphicAlpha"
         in="fbSourceGraphic"
         values="0 0 0 -1 0 0 0 0 -1 0 0 0 0 -1 0 0 0 0 1 0"
         id="feColorMatrix10750" /><feColorMatrix
         id="feColorMatrix10752"
         type="hueRotate"
         values="180"
         result="color1"
         in="fbSourceGraphic" /><feColorMatrix
         id="feColorMatrix10754"
         values="-1 0 0 0 1 0 -1 0 0 1 0 0 -1 0 1 -0.21 -0.72 -0.07 2 0 "
         result="color2" /></filter><style
       id="style10873">.a39cd96f-fcc4-44e2-b5da-a489e0ad244f{fill:#623c96;}</style><filter
       style="color-interpolation-filters:sRGB;"
       inkscape:menu-tooltip="Fades hue progressively to white"
       inkscape:menu="Color"
       inkscape:label="Hue to White"
       id="filter10935"
       x="0"
       y="0"
       width="1"
       height="1"><feColorMatrix
         values="1 0 0 0 0 1 0 0 0 0 1 0 0 0 0 0 0 0 0 1 "
         type="matrix"
         result="r"
         in="SourceGraphic"
         id="feColorMatrix10907" /><feColorMatrix
         values="0 1 0 0 0 0 1 0 0 0 0 1 0 0 0 0 0 0 0 1 "
         type="matrix"
         result="g"
         in="SourceGraphic"
         id="feColorMatrix10909" /><feColorMatrix
         values="0 0 1 0 0 0 0 1 0 0 0 0 1 0 0 0 0 0 0 1 "
         type="matrix"
         result="b"
         in="SourceGraphic"
         id="feColorMatrix10911" /><feBlend
         result="minrg"
         in="r"
         mode="darken"
         in2="g"
         id="feBlend10913" /><feBlend
         result="p"
         in="minrg"
         mode="darken"
         in2="b"
         id="feBlend10915" /><feBlend
         result="maxrg"
         in="r"
         mode="lighten"
         in2="g"
         id="feBlend10917" /><feBlend
         result="q"
         in="maxrg"
         mode="lighten"
         in2="b"
         id="feBlend10919" /><feComponentTransfer
         result="q2"
         in="q"
         id="feComponentTransfer10923"><feFuncR
           slope="0"
           type="linear"
           id="feFuncR10921" /></feComponentTransfer><feBlend
         result="pq"
         in="p"
         mode="lighten"
         in2="q2"
         id="feBlend10925" /><feColorMatrix
         values="-1 1 0 0 0 -1 1 0 0 0 -1 1 0 0 0 0 0 0 0 1 "
         type="matrix"
         result="qminp"
         in="pq"
         id="feColorMatrix10927" /><feComposite
         k3="1"
         operator="arithmetic"
         result="qminpc"
         in="qminp"
         in2="qminp"
         id="feComposite10929" /><feBlend
         result="result2"
         in2="SourceGraphic"
         mode="screen"
         id="feBlend10931" /><feComposite
         operator="in"
         in="result2"
         in2="SourceGraphic"
         result="result1"
         id="feComposite10933" /></filter><clipPath
       clipPathUnits="userSpaceOnUse"
       id="clipPath11257"><g
         id="g11371"
         transform="matrix(0.26458333,0,0,0.26458333,18.562852,127.03764)"><g
           id="g11279"><g
             id="g11277"><g
               id="g11267"><path
                 d="m 234.44,27.46 c -4.75,0.21 -16.31,44.87 -24.66,45.24 -4.96,0.22 -2.06,-12.3 1.63,-23.72 2.79,-8.62 5.91,-15.59 5.84,-17.02 -0.15,-3.34 -6.25,-4.55 -9.21,-4.28 -4.07,0.36 -12.98,25.91 -13.11,38.34 -0.13,12.51 4.42,16.53 11.09,16.23 7.67,-0.34 13.45,-9.8 16.04,-14.96 0.07,-0.13 0.27,-0.07 0.24,0.08 -1.17,7.94 -5.11,25.52 -17.15,26.05 -13.47,0.59 -17.83,-10.11 -18.91,-15.26 -0.99,-4.75 0.31,-7.4 -0.55,-7.91 -0.86,-0.51 -5.25,0.22 -7.3,3.69 -5.51,9.31 6.32,30.3 26.72,29.4 25.98,-1.14 25.57,-23.36 31.15,-46.1 3.59,-14.62 7.71,-24.61 7.67,-25.63 -0.11,-2.59 -5.43,-4.32 -9.51,-4.14 z"
                 id="path11259" /><path
                 d="m 585.43,30.69 c 0,-2.05 -6.97,-3.84 -8.88,-3.84 -4.35,0 -10.32,7.13 -15.36,16.04 0,0 -15.8,31.76 -27.62,31.76 -3.71,0 -4.88,-4.01 -4.78,-9.07 0.17,0.02 0.32,0.02 0.46,0.02 8.05,0 17.91,-6.7 21.53,-18.32 4.36,-14.01 -0.43,-21.27 -10.07,-21.27 -13.14,0 -18.13,12.29 -22.93,24.83 -4.64,12.12 -6.68,22.25 -11.16,22.25 -4.48,0 1.49,-21.73 4.24,-31.12 2.64,-9.03 14,-34.83 14,-36.37 0,-3.07 -7.62,-4.62 -11.01,-4.62 -3.39,0 -10.38,20.85 -12.72,28.08 -1.58,-1.56 -4.24,-3.27 -8.33,-3.27 -14.23,0 -19.92,10.99 -26.52,28.43 -2.37,6.26 -9.7,18.92 -12.88,18.92 -3.18,0 -1.25,-9.94 1.88,-19.14 3.07,-9.03 8.53,-17.4 8.53,-18.92 0,-3.07 -6.99,-4.62 -9.38,-4.62 -1.26,0 -2.56,0.97 -3.51,1.89 -1.93,-2.4 -6.01,-6.51 -11.33,-6.51 -14.23,0 -19.75,10.99 -26.34,28.43 -2.37,6.26 -11.61,20.14 -18.6,20.14 -6.99,0 -5.69,-15.11 -3.41,-21.68 2.63,-7.6 9.22,-17.92 14.51,-17.92 3.24,0 1.18,5.97 0.25,7.68 -0.93,1.71 -2.5,3.86 -3.63,5.06 -2.33,2.45 -4.36,2.75 -4.32,3.44 0.05,0.7 2.29,2.42 5.09,2.23 4.06,-0.27 9.93,-8 9.93,-15 0,-4.95 -1.19,-12.11 -11.35,-12.11 -10.16,0 -22.1,11.07 -25.52,31.21 -3.41,20.14 9.74,24.84 16.68,24.84 8.6,0 14.3,-6.72 19.26,-14.37 0.77,5.25 3.16,13.95 10.5,13.95 6.01,0 12.65,-9.31 16.42,-15.56 1.07,6.25 3.77,15.38 10.47,15.38 7.26,0 11.19,-6.83 15.74,-14.5 0.66,5.12 2.93,14.55 10.6,14.64 7.24,0.08 13.33,-10.73 16.37,-17.34 0.9,6.59 3.45,17.16 10.52,17.16 7.07,0 10.08,-5.27 14.49,-13.57 0.82,5.95 3.79,14.3 14.06,14.3 15.99,0 28.88,-21.68 34.85,-33.54 1.58,-3.16 3.92,-6.75 5.24,-8.69 0.03,-0.04 0.08,-0.01 0.07,0.03 -0.42,1.69 -1.06,5.43 -0.89,12.16 -0.18,8.78 1.38,32.72 -6,32.72 -3.64,0 -4.87,-4.6 -5.03,-8.61 -0.09,-2.4 0.27,-4.98 0.01,-5.15 -0.69,-0.45 -4.32,0 -6.14,2.77 -2.78,4.23 1.77,18.77 13.29,18.77 19.93,0 16.78,-20.54 16.72,-42.15 -0.02,-7.94 2.01,-15.78 2.01,-19.88 z M 437.56,53.14 c -4.99,9.54 -10.55,19.2 -13.31,19.2 -7.85,0 7.48,-43.09 16.9,-40.02 7.62,2.48 -0.71,15.34 -3.58,20.82 z m 53.71,0.26 c -4.99,9.54 -9.73,19.46 -13.77,19.11 -7.82,-0.68 6.6,-42.76 16.11,-40.02 6.25,1.8 0.53,15.43 -2.34,20.92 z m 52.81,-18.43 c 2.19,0 3.68,3.54 -0.29,12.2 -3.75,8.19 -10.51,12.52 -14.26,12.52 -0.06,0 -0.11,0 -0.17,0 0.4,-2.55 0.97,-5.09 1.58,-7.31 2.29,-8.33 9.21,-17.41 13.14,-17.41 z"
                 id="path11261" /><path
                 d="m 364.25,25.75 c -4.35,0 -10.23,7.13 -15.27,16.04 -7.56,13.38 -15.17,31.43 -18.95,31.43 -2.56,0 -1.08,-9.94 2.05,-19.14 3.07,-9.03 8.53,-17.4 8.53,-18.92 0,-3.07 -6.99,-4.62 -9.38,-4.62 -1.26,0 -2.56,0.97 -3.51,1.89 -1.93,-2.4 -6.01,-6.51 -11.33,-6.51 -14.85,0 -19.44,11.75 -26.04,29.19 -2.22,5.29 -13.86,22.22 -24.93,22.22 -5.32,0 -8.25,-5.15 -7.49,-14.84 C 259.7,39.75 279,12.6 288.28,12.6 c 2.51,0 1.26,5.5 1.26,5.5 -1.52,7.91 -5.67,14.3 -9.3,18.1 -3.35,3.51 -6.27,3.95 -6.2,4.95 0.07,1 3.3,3.47 7.32,3.21 7.55,-0.5 15.42,-17.06 15.42,-25.57 0,-1.51 1,-16.48 -12.55,-16.48 -19.04,0 -38.19,29.44 -39.65,57.64 -0.54,10.51 2.52,27 17.37,27 11.38,0 21.21,-9.78 27.21,-18.91 0.72,5.27 3,13.81 10.28,13.81 6.46,0 12.82,-9.04 16.45,-15.28 1.08,6.23 3.78,15.1 10.44,15.1 5.42,0 9.72,-3.48 13.33,-8.39 1.62,4.37 5.17,8.63 12.91,8.63 16.23,0 17.78,-10.84 18.29,-32.69 0.19,-7.93 2.27,-16.29 2.27,-19.61 0,-2.05 -6.97,-3.84 -8.88,-3.84 z M 315.4,53.31 c -4.99,9.54 -10.55,19.2 -13.31,19.2 -7.85,0 7.36,-42.66 16.9,-40.02 8.02,2.22 -0.71,15.34 -3.58,20.82 z m 34.51,21.42 c -4.89,0 -6.34,-3.89 -6.71,-7.03 3.61,-6.42 6.53,-13.76 9.37,-19.04 3.42,-6.35 5.92,-9.57 7.48,-11.18 0.05,-0.05 0.13,0 0.11,0.06 -0.56,2.54 -1.2,6.34 -1.62,11.59 -0.64,15.36 -2.57,25.6 -8.63,25.6 z"
                 id="path11263" /><path
                 d="m 179.24,0 c -21.89,0 -47.11,13.47 -47.11,26.61 0,5.62 3.63,8.18 5.03,8.18 1.4,0 1.73,-4.1 6.31,-9.09 6.62,-7.21 19.54,-16.14 35.98,-16.14 10.23,0 11.04,6.72 11.04,10.43 0,11.19 -17.93,26.61 -27.82,27.69 4.79,-12.56 10.29,-23.39 10.29,-24.39 0,-2.41 -8.11,-4.27 -11.13,-4.27 -3.02,0 -9.15,17.63 -13.98,34.06 -3.81,12.94 -6.68,25.13 -6.8,27.34 -0.11,2 3.92,6.18 9.11,6.18 2.1,0 4.24,-13.06 8.43,-27.01 0.03,0 0.05,0 0.08,0 17.75,-1.37 41.45,-17.1 41.45,-39.44 0,-14.36 -12.25,-20.14 -20.89,-20.14 z"
                 id="path11265" /></g><g
               id="g11275"><path
                 d="M 90.04,52 76.44,38.81 70.16,38.3 62.13,31.2 35.19,52.82 21.03,55.71 17.16,57.7 28.65,69.19 39.68,62.73 40.93,62 l 1.44,0.23 7.81,1.23 6.52,-5.74 3.19,-2.81 2.67,3.32 4.71,5.85 7.42,-5.25 3.56,-2.52 2.27,3.72 4.45,7.28 7.43,3.97 1.17,0.62 11.37,-11.37 -14.91,-8.51 z M 93.21,69.41 86.4,65.77 78.85,53.41 67.66,61.33 60.14,52 49.56,61.32 40.53,59.9 28.96,66.68 20.5,58.22 l 1.18,-0.61 14.36,-2.93 26.01,-20.86 7.26,6.43 6.23,0.5 13.27,12.87 12.85,7.33 -8.47,8.47 z"
                 id="path11269" /><polygon
                 points="31.63,72.16 62.43,102.97 90.49,74.85 82.08,70.35 77.06,62.13 66.51,69.59 59.4,60.76 51.44,67.77 41.74,66.24 "
                 id="polygon11271" /><path
                 d="m 57.03,9.82 17.3,5.71 0.4,0.13 0.41,-0.06 9.22,-1.24 16.56,14.76 0.39,0.35 0.51,0.09 8.44,1.43 12.03,9.62 -14.66,14.66 -14.03,-8 -13.07,-12.67 -1.05,-1.02 -0.47,-0.45 -0.65,-0.05 -1.46,-0.12 -4.33,-0.35 -6.56,-5.8 -2.57,-2.27 -1.14,-1.01 -1.19,0.95 -2.68,2.15 -25.83,20.73 -12.76,2.61 -0.55,0.11 -0.24,0.05 -0.22,0.11 -0.5,0.26 -3.85,1.98 L 2.71,40.68 7.94,36.49 21.73,32.61 22.22,32.47 22.57,32.09 32.68,21.14 57.03,9.8 M 56.92,7.86 31.59,19.65 21.24,30.86 7.09,34.84 0,40.54 l 14.14,14.14 0.11,-0.06 4.91,-2.53 0.5,-0.26 0.55,-0.11 13.19,-2.7 26.18,-21 2.68,-2.15 2.57,2.27 7.01,6.2 4.93,0.4 1.46,0.12 1.05,1.02 13.23,12.83 15.43,8.8 17.07,-17.07 -13.98,-11.18 -8.9,-1.5 L 84.95,12.44 74.91,13.79 56.93,7.85 v 0 z"
                 id="path11273" /></g></g></g><g
           id="g11369"
           data-name="2023"><g
             id="g11367"><path
               class="cls-1"
               d="m 10.27,120.95 c -0.16,-0.76 -0.25,-1.42 0.65,-1.42 h 1.01 c 1.04,0 1.15,0.77 1.24,1.15 0.23,1.04 1.94,7.76 2.23,9.06 h 0.11 c 0.31,-1.58 2.05,-8.48 2.18,-9.02 0.14,-0.76 0.16,-1.19 1.12,-1.19 h 1.35 c 0.7,0 0.79,0.7 0.61,1.35 -0.49,1.78 -2.63,8.98 -2.79,9.65 -0.2,0.74 -0.34,1.24 -1.49,1.24 h -2.23 c -0.97,0 -1.26,-0.5 -1.42,-1.19 -0.18,-0.67 -2.29,-8.5 -2.56,-9.63 z"
               id="path11281" /><path
               class="cls-1"
               d="m 22.43,130.42 c 0.5,-1.78 2.74,-8.98 2.9,-9.65 0.18,-0.74 0.31,-1.24 1.48,-1.24 h 2.23 c 0.95,0 1.24,0.5 1.42,1.19 0.16,0.67 2.38,8.5 2.65,9.63 0.16,0.76 0.25,1.42 -0.67,1.42 h -0.99 c -1.06,0 -1.13,-0.77 -1.24,-1.15 -0.09,-0.23 -0.23,-0.81 -0.49,-1.48 h -3.76 c -0.23,0.72 -0.41,1.28 -0.45,1.44 -0.09,0.76 -0.23,1.19 -1.1,1.19 h -1.39 c -0.68,0 -0.77,-0.7 -0.59,-1.35 z m 6.86,-3.37 c -0.58,-2.21 -1.24,-4.75 -1.4,-5.49 h -0.11 c -0.18,0.87 -0.85,3.37 -1.42,5.49 h 2.94 z"
               id="path11283" /><path
               class="cls-1"
               d="m 36.07,121.1 c 0,-0.74 -0.23,-1.57 1.06,-1.57 h 1.58 l 4.86,6.5 h 0.14 c -0.04,-0.81 -0.13,-5.51 -0.13,-5.73 -0.02,-0.38 0.02,-0.77 1.04,-0.77 h 1.1 c 1.04,0 1.04,0.86 1.03,1.55 -0.02,0.76 -0.18,7.85 -0.09,8.93 0.04,0.74 0.4,1.76 -0.99,1.76 h -1.1 c -0.9,0 -1.03,-0.76 -1.06,-1.33 0,-0.7 -3.49,-5.02 -4.41,-6.43 h -0.16 c 0,1.21 0.2,5.58 0.23,6 0.04,0.74 0.4,1.76 -0.99,1.76 h -1.15 c -1.04,0 -1.06,-0.88 -1.04,-1.57 0.07,-1.73 0.09,-8.61 0.07,-9.11 z"
               id="path11285" /><path
               class="cls-1"
               d="m 55.6,119.35 c 1.98,0 3.02,0.65 3.37,0.9 0.31,0.25 0.7,0.74 0.09,1.73 -0.36,0.59 -0.72,0.81 -0.72,0.81 0,0 -0.85,-0.83 -2.48,-0.83 -2.09,0 -2.9,1.66 -2.9,3.67 0,2.01 0.99,3.69 2.84,3.69 1.01,0 1.66,-0.36 1.98,-0.59 0.31,-0.21 0.68,-0.38 0.99,0.18 l 0.58,1.04 c 0.2,0.34 0.34,0.61 -0.05,0.92 -0.54,0.47 -1.76,1.08 -3.6,1.08 -3.85,0 -5.82,-2.7 -5.78,-6.3 0.04,-3.57 1.85,-6.3 5.69,-6.3 z"
               id="path11287" /><path
               class="cls-1"
               d="m 67.35,119.35 c 3.64,0 5.65,2.74 5.62,6.3 -0.05,3.56 -1.91,6.3 -5.55,6.3 -3.64,0 -5.67,-2.72 -5.64,-6.3 0.04,-3.55 1.78,-6.3 5.56,-6.3 z m 2.45,6.29 c 0,-1.98 -0.56,-3.73 -2.43,-3.73 -1.87,0 -2.48,1.75 -2.47,3.73 0.02,1.94 0.54,3.76 2.47,3.76 1.93,0 2.45,-1.84 2.43,-3.76 z"
               id="path11289" /><path
               class="cls-1"
               d="m 75.95,121.15 c -0.02,-0.74 -0.32,-1.62 0.97,-1.62 h 1.15 c 1.04,0 1.08,0.74 1.06,1.42 -0.04,0.74 -0.09,3.37 -0.07,5.19 0.04,2.12 0.52,3.26 2.07,3.26 1.55,0 2.07,-1.08 2.07,-3.28 0,-2 0,-4.38 -0.02,-4.97 0,-0.74 -0.32,-1.62 0.97,-1.62 h 1.15 c 1.04,0 1.1,0.74 1.06,1.42 -0.02,0.74 -0.07,4.32 -0.11,5.17 -0.16,3.53 -1.12,5.83 -5.08,5.83 -4.18,0 -5.11,-2.25 -5.2,-5.82 -0.05,-2.39 -0.02,-4.47 -0.04,-4.99 z"
               id="path11291" /><path
               class="cls-1"
               d="m 89.13,120.95 c -0.16,-0.76 -0.25,-1.42 0.65,-1.42 h 1.01 c 1.04,0 1.15,0.77 1.24,1.15 0.23,1.04 1.94,7.76 2.23,9.06 h 0.11 c 0.31,-1.58 2.05,-8.48 2.18,-9.02 0.14,-0.76 0.16,-1.19 1.12,-1.19 h 1.35 c 0.7,0 0.79,0.7 0.61,1.35 -0.49,1.78 -2.63,8.98 -2.79,9.65 -0.2,0.74 -0.34,1.24 -1.49,1.24 h -2.23 c -0.97,0 -1.26,-0.5 -1.42,-1.19 -0.18,-0.67 -2.29,-8.5 -2.56,-9.63 z"
               id="path11293" /><path
               class="cls-1"
               d="m 102.5,121.3 c -0.02,-0.74 -0.38,-1.76 1.01,-1.76 h 6.19 c 0.81,0 0.92,0.36 0.92,0.94 v 0.76 c 0.02,0.61 -0.31,0.86 -0.97,0.85 -0.9,-0.02 -2.48,-0.02 -4.03,-0.02 l -0.02,2.52 c 1.17,0 2.99,0 3.42,-0.02 0.4,-0.02 0.76,0.18 0.76,0.7 v 0.81 c 0,0.58 -0.18,0.67 -0.7,0.68 -0.5,0 -2.3,-0.02 -3.49,0 0,0.96 0,1.75 0.02,2.52 1.26,0 3.55,-0.02 4.1,-0.05 0.65,-0.04 0.94,0.25 0.94,0.87 v 0.99 c 0,0.58 -0.13,0.7 -0.94,0.7 h -6.18 c -1.04,0 -1.06,-0.88 -1.04,-1.57 0.05,-1.73 0.02,-8.41 0.02,-8.91 z"
               id="path11295" /><path
               class="cls-1"
               d="m 114.04,121.28 c 0,-0.74 -0.29,-1.75 1.08,-1.75 h 3.73 c 3.13,0 4.79,1.73 4.74,4.2 -0.04,1.67 -0.99,2.83 -2.27,3.42 l 1.44,1.95 c 0.32,0.52 0.67,0.56 1.17,0.56 0.4,1.75 -0.34,2.3 -1.58,2.3 -1.13,0 -1.62,-0.59 -2.09,-1.46 l -1.69,-2.81 h -1.46 c -0.02,0.43 -0.05,2.25 0,2.84 0.07,0.94 -0.18,1.24 -0.95,1.24 h -1.13 c -1.04,0 -1.06,-0.88 -1.04,-1.57 0.05,-1.73 0.09,-8.41 0.07,-8.93 z m 4.46,4.43 c 1.31,0 2.11,-0.67 2.11,-2 0,-0.95 -0.54,-1.98 -2.07,-1.98 h -1.51 c -0.04,0.94 -0.02,3.29 -0.02,3.98 z"
               id="path11297" /><path
               class="cls-1"
               d="m 129.01,128.34 c 1.08,0 1.98,0.58 1.98,2.29 0,2.56 -1.06,4.03 -2.3,4.03 -1.35,0 -1.26,-0.94 -1.26,-0.94 0,0 1.3,-0.65 1.39,-1.91 -0.76,0 -1.66,-0.38 -1.66,-1.69 0,-1.31 0.81,-1.78 1.85,-1.78 z"
               id="path11299" /><path
               class="cls-1"
               d="m 140.61,121.1 c -0.02,-0.74 -0.29,-1.57 1.12,-1.57 h 3.46 c 3.21,0 4.5,1.37 4.5,3.22 -0.02,2.09 -2.09,2.48 -2.09,2.48 v 0.11 c 0,0 2.65,0.29 2.65,2.9 0.02,2.03 -1.46,3.53 -4.72,3.53 h -3.94 c -1.04,0 -1.06,-0.88 -1.04,-1.57 0.07,-1.73 0.07,-8.61 0.07,-9.11 z m 4.41,8.52 c 1.35,0 2.16,-0.5 2.16,-1.69 0,-1.03 -0.72,-1.64 -2.11,-1.64 h -1.49 v 3.33 z m -0.14,-5.1 c 1.33,0 2,-0.49 2,-1.48 0,-0.9 -0.68,-1.4 -1.96,-1.4 h -1.3 l -0.02,2.88 z"
               id="path11301" /><path
               class="cls-1"
               d="m 158.51,119.35 c 1.98,0 3.03,0.65 3.37,0.9 0.31,0.25 0.7,0.74 0.09,1.73 -0.36,0.59 -0.72,0.81 -0.72,0.81 0,0 -0.85,-0.83 -2.49,-0.83 -2.09,0 -2.9,1.66 -2.9,3.67 0,2.01 0.99,3.69 2.84,3.69 1.01,0 1.66,-0.36 1.98,-0.59 0.31,-0.21 0.68,-0.38 0.99,0.18 l 0.58,1.04 c 0.2,0.34 0.34,0.61 -0.05,0.92 -0.54,0.47 -1.76,1.08 -3.6,1.08 -3.85,0 -5.82,-2.7 -5.78,-6.3 0.04,-3.57 1.85,-6.3 5.69,-6.3 z"
               id="path11303" /><path
               class="cls-1"
               d="m 171.15,129.33 c 1.6,-1.69 5.24,-4.16 5.2,-6.21 0,-0.68 -0.5,-1.24 -1.55,-1.24 -1.55,0 -2.75,0.74 -2.75,0.74 0,0 -0.23,-0.25 -0.41,-0.67 -0.56,-1.33 -0.02,-1.64 0.52,-1.93 0.45,-0.23 1.57,-0.67 3.19,-0.67 2.36,0 3.98,1.15 4.11,3.15 0.14,2.74 -2.57,4.72 -4.46,6.63 v 0.16 c 0.86,0 3.08,-0.13 3.47,-0.16 0.68,-0.07 0.95,0.31 0.94,0.92 v 1.03 c -0.02,0.58 -0.14,0.7 -1.01,0.7 h -6.14 c -0.74,0 -1.06,-0.25 -1.08,-0.88 l -0.02,-1.57 z"
               id="path11305" /><path
               class="cls-1"
               d="m 182.19,125.65 c 0,-3.55 1.57,-6.3 5.08,-6.3 3.51,0 4.86,2.74 4.88,6.3 0.02,3.53 -1.58,6.3 -5.09,6.3 -3.51,0 -4.86,-2.72 -4.86,-6.3 z m 7.02,0 c 0.02,-1.96 -0.52,-3.75 -1.98,-3.75 -1.55,0 -2.12,1.78 -2.12,3.73 0,1.95 0.47,3.76 1.98,3.76 1.51,0 2.12,-1.85 2.12,-3.75 z"
               id="path11307" /><path
               class="cls-1"
               d="m 194.54,129.33 c 1.6,-1.69 5.24,-4.16 5.2,-6.21 0,-0.68 -0.5,-1.24 -1.55,-1.24 -1.55,0 -2.75,0.74 -2.75,0.74 0,0 -0.23,-0.25 -0.41,-0.67 -0.56,-1.33 -0.02,-1.64 0.52,-1.93 0.45,-0.23 1.57,-0.67 3.19,-0.67 2.36,0 3.98,1.15 4.11,3.15 0.14,2.74 -2.57,4.72 -4.46,6.63 v 0.16 c 0.86,0 3.08,-0.13 3.47,-0.16 0.68,-0.07 0.95,0.31 0.94,0.92 v 1.03 c -0.02,0.58 -0.14,0.7 -1.01,0.7 h -6.14 c -0.74,0 -1.06,-0.25 -1.08,-0.88 l -0.02,-1.57 z"
               id="path11309" /><path
               class="cls-1"
               d="m 205.62,129.54 c 0.14,-0.56 0.45,-0.9 0.45,-0.9 0,0 1.6,0.87 3.42,0.87 1.4,0 1.98,-0.67 1.98,-1.55 -0.02,-0.79 -0.61,-1.31 -2.03,-1.31 h -1.28 c -0.4,0 -0.47,-0.27 -0.47,-0.58 v -1.04 c 0,-0.23 0.07,-0.45 0.38,-0.45 h 1.3 c 1.12,0 1.6,-0.59 1.6,-1.39 0,-0.74 -0.45,-1.31 -1.64,-1.31 -1.75,0 -2.99,0.72 -2.99,0.72 0,0 -0.23,-0.23 -0.41,-0.65 -0.56,-1.28 -0.05,-1.6 0.45,-1.87 0.45,-0.25 1.66,-0.72 3.35,-0.72 3.13,0 4.32,1.46 4.29,3.4 -0.02,2.07 -1.8,2.59 -1.8,2.59 v 0.11 c 0,0 2.3,0.29 2.3,2.83 0,2.07 -1.94,3.67 -4.74,3.67 -1.53,0 -2.83,-0.4 -3.31,-0.59 -0.92,-0.34 -1.13,-0.79 -0.85,-1.82 z"
               id="path11311" /><path
               class="cls-1"
               d="m 229.77,119.62 c 0,-0.67 0.14,-0.81 0.59,-0.81 h 0.59 c 0.4,0 0.68,0.12 0.67,0.81 -0.02,0.86 -0.09,12.42 -0.07,13.76 0,0.56 -0.16,0.74 -0.61,0.74 h -0.68 c -0.43,0 -0.52,-0.23 -0.5,-0.74 0.05,-1.44 0.02,-13.18 0.02,-13.76 z"
               id="path11313" /><path
               class="cls-1"
               d="m 247.28,129.9 c 0.16,-0.47 0.56,-0.68 0.56,-0.68 0,0 1.12,1.1 3.22,1.1 1.62,0 2.61,-0.79 2.61,-2 0,-0.81 -0.76,-1.42 -2.05,-1.75 l -1.73,-0.45 c -1.58,-0.41 -2.95,-1.28 -2.95,-3.17 0,-2.02 1.62,-3.6 4.32,-3.6 1.71,0 2.81,0.47 3.26,0.74 0.49,0.31 0.74,0.72 0.4,1.33 -0.2,0.36 -0.47,0.54 -0.47,0.54 0,0 -1.35,-0.97 -3.19,-0.97 -1.58,0 -2.32,0.81 -2.32,1.95 0,0.92 1.01,1.31 1.96,1.58 l 1.67,0.45 c 2.27,0.65 3.1,1.76 3.1,3.35 0,2.25 -1.93,3.64 -4.61,3.64 -1.66,0 -2.85,-0.45 -3.24,-0.68 -0.58,-0.36 -0.76,-0.81 -0.54,-1.37 z"
               id="path11315" /><path
               class="cls-1"
               d="m 259.04,120.74 c 0,-0.5 -0.23,-1.21 0.65,-1.21 h 6.66 c 0.5,0 0.58,0.25 0.58,0.65 v 0.52 c 0,0.41 -0.18,0.58 -0.61,0.58 h -5.28 L 261,124.9 c 1.46,0 4.16,0 4.61,-0.02 0.25,-0.02 0.49,0.13 0.49,0.49 v 0.65 c 0,0.38 -0.13,0.45 -0.45,0.45 -0.52,0 -3.12,-0.02 -4.63,0 l 0.05,3.56 c 1.44,0 4.72,-0.02 5.26,-0.05 0.41,-0.04 0.59,0.18 0.59,0.59 v 0.72 c 0,0.4 -0.09,0.49 -0.59,0.49 h -6.54 c -0.67,0 -0.68,-0.61 -0.67,-1.08 0.04,-1.19 -0.09,-9.6 -0.09,-9.96 z"
               id="path11317" /><path
               class="cls-1"
               d="m 273.69,120.34 c 0.14,-0.49 0.43,-0.81 1.04,-0.81 h 1.1 c 0.63,0 0.94,0.34 1.12,0.88 0.14,0.58 3.29,9.85 3.53,10.64 0.13,0.5 -0.07,0.72 -0.52,0.72 h -0.52 c -0.68,0 -0.7,-0.45 -0.81,-0.7 -0.13,-0.31 -0.38,-1.21 -0.81,-2.25 h -5.17 c -0.4,1.1 -0.72,1.94 -0.79,2.2 -0.14,0.52 -0.32,0.76 -0.77,0.76 h -0.72 c -0.34,0 -0.58,-0.23 -0.43,-0.68 0.38,-1.22 3.56,-10.1 3.76,-10.75 z m 3.69,7.04 c -0.86,-2.54 -1.87,-5.56 -2.09,-6.39 h -0.11 c -0.23,0.85 -1.24,3.87 -2.12,6.39 z"
               id="path11319" /><path
               class="cls-1"
               d="m 285.14,121.3 c -0.54,0 -2.99,-0.02 -3.19,0 -0.41,0.04 -0.54,-0.18 -0.54,-0.59 v -0.68 c 0,-0.4 0.07,-0.49 0.58,-0.49 0,0 7.63,0.07 8.44,0 0.42,-0.04 0.54,0.23 0.52,0.65 l -0.02,0.63 c -0.02,0.4 -0.07,0.49 -0.58,0.49 l -3.26,0.02 c -0.09,2.48 0,8.95 0,9.25 0,0.5 0.25,1.21 -0.63,1.21 h -0.72 c -0.67,0 -0.68,-0.59 -0.67,-1.06 0.02,-0.45 0.07,-7.36 0.05,-9.42 z"
               id="path11321" /><path
               class="cls-1"
               d="m 297.15,121.3 c -0.54,0 -2.99,-0.02 -3.19,0 -0.41,0.04 -0.54,-0.18 -0.54,-0.59 v -0.68 c 0,-0.4 0.07,-0.49 0.58,-0.49 0,0 7.64,0.07 8.44,0 0.42,-0.04 0.54,0.23 0.52,0.65 l -0.02,0.63 c -0.02,0.4 -0.07,0.49 -0.58,0.49 l -3.26,0.02 c -0.09,2.48 0,8.95 0,9.25 0,0.5 0.25,1.21 -0.63,1.21 h -0.72 c -0.67,0 -0.68,-0.59 -0.67,-1.06 0.02,-0.45 0.07,-7.36 0.05,-9.42 z"
               id="path11323" /><path
               class="cls-1"
               d="m 306.07,129.24 c 0,-2.07 -0.02,-5.65 -0.04,-7.44 0,-0.58 -0.02,-1.08 -0.04,-1.67 0,-0.36 0.05,-0.59 0.49,-0.59 h 0.83 c 0.67,0 0.65,0.59 0.65,1.06 0,0.09 -0.02,0.45 -0.02,0.97 -0.02,2.07 -0.02,6.82 0.02,8.46 1.44,0 4.56,0 5.06,-0.05 0.41,-0.05 0.59,0.22 0.59,0.63 v 0.59 c 0,0.4 -0.07,0.58 -0.58,0.58 h -6.3 c -0.67,0 -0.68,-0.61 -0.68,-1.08 0,-0.23 0.02,-0.77 0.02,-1.46 z"
               id="path11325" /><path
               class="cls-1"
               d="m 316.82,120.74 c 0,-0.5 -0.23,-1.21 0.65,-1.21 h 6.66 c 0.5,0 0.58,0.25 0.58,0.65 v 0.52 c 0,0.41 -0.18,0.58 -0.61,0.58 h -5.28 l -0.04,3.62 c 1.46,0 4.16,0 4.61,-0.02 0.25,-0.02 0.49,0.13 0.49,0.49 v 0.65 c 0,0.38 -0.13,0.45 -0.45,0.45 -0.52,0 -3.12,-0.02 -4.63,0 l 0.05,3.56 c 1.44,0 4.72,-0.02 5.26,-0.05 0.41,-0.04 0.59,0.18 0.59,0.59 v 0.72 c 0,0.4 -0.09,0.49 -0.59,0.49 h -6.54 c -0.67,0 -0.68,-0.61 -0.67,-1.08 0.04,-1.19 -0.09,-9.6 -0.09,-9.96 z"
               id="path11327" /><path
               class="cls-1"
               d="m 334.89,125.58 c -0.04,-1.78 0.77,-1.98 1.85,-1.98 1.01,0 1.87,0.2 1.87,1.98 0,1.78 -0.81,1.96 -1.85,1.96 -1.04,0 -1.89,-0.2 -1.87,-1.96 z"
               id="path11329" /><path
               class="cls-1"
               d="m 349.2,120.74 c 0,-0.5 -0.23,-1.21 0.65,-1.21 h 3.67 c 3.06,0 4.77,1.84 4.75,4.2 -0.02,2.32 -1.66,4.27 -4.65,4.27 h -2.45 c 0,0.47 0.02,2.43 0.04,2.58 0.02,0.5 0.25,1.21 -0.63,1.21 h -0.72 c -0.67,0 -0.68,-0.61 -0.67,-1.08 0.04,-1.19 0,-9.6 0,-9.96 z m 4.32,5.8 c 1.87,0 2.75,-1.06 2.77,-2.68 0.02,-1.6 -0.81,-2.86 -2.75,-2.86 h -2.4 c -0.07,0.85 0.04,4.65 0.02,5.55 h 2.36 z"
               id="path11331" /><path
               class="cls-1"
               d="m 366.67,119.35 c 3.47,0 5.38,2.74 5.4,6.3 0,3.58 -1.93,6.3 -5.42,6.3 -3.73,0 -5.46,-2.7 -5.46,-6.3 0,-3.6 1.75,-6.3 5.47,-6.3 z m 3.4,6.29 c 0,-2.49 -0.9,-4.65 -3.42,-4.65 -2.52,0 -3.47,2.16 -3.47,4.65 0,2.49 0.88,4.68 3.47,4.68 2.59,0 3.42,-2.27 3.42,-4.68 z"
               id="path11333" /><path
               class="cls-1"
               d="m 375.7,120.72 c 0,-0.5 -0.05,-1.19 0.81,-1.19 h 3.71 c 3.01,0 4.57,1.66 4.57,4.07 0,1.91 -1.22,3.17 -2.74,3.71 l 2.02,2.59 c 0.29,0.41 0.61,0.41 1.06,0.41 0.27,1.21 -0.25,1.64 -1.08,1.64 -0.92,0 -1.24,-0.45 -1.64,-1.01 l -2.3,-3.33 h -2.47 c 0,0.47 -0.04,2.88 0,3.31 0.05,0.63 -0.11,0.85 -0.59,0.85 h -0.7 c -0.67,0 -0.67,-0.61 -0.67,-1.08 0.04,-1.19 0.02,-9.62 0.02,-9.97 z m 4.54,5.46 c 1.46,0 2.56,-0.92 2.56,-2.57 0,-1.26 -0.76,-2.61 -2.58,-2.61 h -2.61 c -0.04,1.08 0,4.5 0,5.19 h 2.63 z"
               id="path11335" /><path
               class="cls-1"
               d="m 391.11,121.3 c -0.54,0 -2.99,-0.02 -3.19,0 -0.41,0.04 -0.54,-0.18 -0.54,-0.59 v -0.68 c 0,-0.4 0.07,-0.49 0.58,-0.49 0,0 7.63,0.07 8.44,0 0.41,-0.04 0.54,0.23 0.52,0.65 l -0.02,0.63 c -0.02,0.4 -0.07,0.49 -0.58,0.49 l -3.26,0.02 c -0.09,2.48 0,8.95 0,9.25 0,0.5 0.25,1.21 -0.63,1.21 h -0.72 c -0.67,0 -0.68,-0.59 -0.67,-1.06 0.02,-0.45 0.07,-7.36 0.05,-9.42 z"
               id="path11337" /><path
               class="cls-1"
               d="m 400.04,129.24 c 0,-2.07 -0.02,-5.65 -0.04,-7.44 0,-0.58 -0.02,-1.08 -0.04,-1.67 0,-0.36 0.05,-0.59 0.49,-0.59 h 0.83 c 0.67,0 0.65,0.59 0.65,1.06 0,0.09 -0.02,0.45 -0.02,0.97 -0.02,2.07 -0.02,6.82 0.02,8.46 1.44,0 4.56,0 5.06,-0.05 0.41,-0.05 0.59,0.22 0.59,0.63 v 0.59 c 0,0.4 -0.07,0.58 -0.58,0.58 h -6.3 c -0.67,0 -0.68,-0.61 -0.68,-1.08 0,-0.23 0.02,-0.77 0.02,-1.46 z"
               id="path11339" /><path
               class="cls-1"
               d="m 414.16,120.34 c 0.14,-0.49 0.43,-0.81 1.04,-0.81 h 1.1 c 0.63,0 0.94,0.34 1.12,0.88 0.14,0.58 3.3,9.85 3.53,10.64 0.13,0.5 -0.07,0.72 -0.52,0.72 h -0.52 c -0.68,0 -0.7,-0.45 -0.81,-0.7 -0.13,-0.31 -0.38,-1.21 -0.81,-2.25 h -5.17 c -0.4,1.1 -0.72,1.94 -0.79,2.2 -0.14,0.52 -0.32,0.76 -0.77,0.76 h -0.72 c -0.34,0 -0.58,-0.23 -0.43,-0.68 0.38,-1.22 3.56,-10.1 3.76,-10.75 z m 3.69,7.04 c -0.86,-2.54 -1.87,-5.56 -2.09,-6.39 h -0.11 c -0.23,0.85 -1.24,3.87 -2.12,6.39 z"
               id="path11341" /><path
               class="cls-1"
               d="m 424.14,120.38 c 0,-0.5 0.02,-0.85 0.74,-0.85 h 0.94 l 6.3,8.14 h 0.13 c -0.04,-0.81 -0.07,-7.45 -0.07,-7.62 -0.02,-0.25 0.04,-0.52 0.67,-0.52 h 0.7 c 0.65,0 0.65,0.59 0.65,1.06 0,0.52 -0.07,9.22 -0.02,9.97 0.02,0.5 0.25,1.21 -0.63,1.21 h -0.68 c -0.59,0 -0.67,-0.59 -0.68,-0.99 -0.02,-0.58 -5.06,-6.61 -6.01,-8.01 h -0.16 c 0,1.21 0.14,7.51 0.16,7.8 0.02,0.5 0.25,1.21 -0.63,1.21 h -0.72 c -0.67,0 -0.68,-0.61 -0.67,-1.08 0.04,-1.19 0,-9.96 0,-10.32 z"
               id="path11343" /><path
               class="cls-1"
               d="m 438.39,120.74 c 0,-0.5 -0.22,-1.21 0.67,-1.21 h 2.9 c 4.7,0 6.43,2.56 6.36,6.12 -0.05,3.55 -1.6,6.12 -6.36,6.12 h -2.86 c -0.67,0 -0.68,-0.61 -0.68,-1.08 0.05,-1.19 -0.02,-9.6 -0.02,-9.96 z m 3.57,9.58 c 3.85,0 4.39,-2.34 4.38,-4.72 -0.02,-2.41 -0.72,-4.61 -4.38,-4.61 h -1.6 c -0.05,2.04 -0.04,6.77 -0.02,9.33 z"
               id="path11345" /><path
               class="cls-1"
               d="m 458.34,125.58 c -0.04,-1.78 0.77,-1.98 1.85,-1.98 1.01,0 1.87,0.2 1.87,1.98 0,1.78 -0.81,1.96 -1.85,1.96 -1.04,0 -1.89,-0.2 -1.87,-1.96 z"
               id="path11347" /><path
               class="cls-1"
               d="m 471.73,120.25 c -0.14,-0.5 0.05,-0.72 0.5,-0.72 h 0.54 c 0.67,0 0.7,0.45 0.79,0.7 0.18,0.5 2.83,8.64 3.17,10.08 h 0.13 c 0.34,-1.44 2.99,-9.51 3.17,-10.03 0.16,-0.52 0.18,-0.76 0.77,-0.76 h 0.7 c 0.34,0 0.59,0.23 0.45,0.68 -0.38,1.22 -3.38,10.1 -3.58,10.75 -0.16,0.49 -0.47,0.81 -1.06,0.81 h -1.12 c -0.63,0 -0.97,-0.34 -1.12,-0.88 -0.16,-0.58 -3.12,-9.85 -3.35,-10.64 z"
               id="path11349" /><path
               class="cls-1"
               d="m 487.15,120.34 c 0.14,-0.49 0.43,-0.81 1.04,-0.81 h 1.1 c 0.63,0 0.94,0.34 1.12,0.88 0.14,0.58 3.3,9.85 3.53,10.64 0.13,0.5 -0.07,0.72 -0.52,0.72 h -0.52 c -0.68,0 -0.7,-0.45 -0.81,-0.7 -0.13,-0.31 -0.38,-1.21 -0.81,-2.25 h -5.17 c -0.4,1.1 -0.72,1.94 -0.79,2.2 -0.14,0.52 -0.32,0.76 -0.77,0.76 h -0.72 c -0.34,0 -0.58,-0.23 -0.43,-0.68 0.38,-1.22 3.56,-10.1 3.76,-10.75 z m 3.69,7.04 c -0.86,-2.54 -1.87,-5.56 -2.09,-6.39 h -0.11 c -0.23,0.85 -1.24,3.87 -2.12,6.39 z"
               id="path11351" /><path
               class="cls-1"
               d="m 497.14,120.38 c 0,-0.5 0.02,-0.85 0.74,-0.85 h 0.94 l 6.3,8.14 h 0.13 c -0.04,-0.81 -0.07,-7.45 -0.07,-7.62 -0.02,-0.25 0.04,-0.52 0.67,-0.52 h 0.7 c 0.65,0 0.65,0.59 0.65,1.06 0,0.52 -0.07,9.22 -0.02,9.97 0.02,0.5 0.25,1.21 -0.63,1.21 h -0.68 c -0.59,0 -0.67,-0.59 -0.68,-0.99 -0.02,-0.58 -5.06,-6.61 -6.01,-8.01 h -0.16 c 0,1.21 0.14,7.51 0.16,7.8 0.02,0.5 0.25,1.21 -0.63,1.21 h -0.72 c -0.67,0 -0.68,-0.61 -0.67,-1.08 0.04,-1.19 0,-9.96 0,-10.32 z"
               id="path11353" /><path
               class="cls-1"
               d="m 516.46,119.35 c 1.91,0 2.88,0.56 3.24,0.79 0.29,0.2 0.65,0.67 0.11,1.37 -0.23,0.31 -0.43,0.4 -0.43,0.4 0,0 -0.95,-0.92 -2.88,-0.92 -2.61,0 -3.78,2.09 -3.78,4.65 0,2.56 1.37,4.68 3.76,4.68 1.17,0 1.89,-0.38 2.32,-0.68 0.22,-0.14 0.45,-0.27 0.67,0.11 l 0.38,0.63 c 0.14,0.23 0.23,0.43 -0.04,0.65 -0.41,0.32 -1.51,0.94 -3.33,0.94 -3.87,0 -5.74,-2.68 -5.74,-6.3 0,-3.62 1.87,-6.3 5.73,-6.3 z"
               id="path11355" /><path
               class="cls-1"
               d="m 528.04,119.35 c 3.47,0 5.38,2.74 5.4,6.3 0,3.58 -1.93,6.3 -5.42,6.3 -3.73,0 -5.46,-2.7 -5.46,-6.3 0,-3.6 1.75,-6.3 5.47,-6.3 z m 3.4,6.29 c 0,-2.49 -0.9,-4.65 -3.42,-4.65 -2.52,0 -3.47,2.16 -3.47,4.65 0,2.49 0.88,4.68 3.47,4.68 2.59,0 3.42,-2.27 3.42,-4.68 z"
               id="path11357" /><path
               class="cls-1"
               d="m 536.86,120.5 c 0,-0.5 -0.09,-0.97 0.61,-0.97 h 0.74 c 0.67,0 0.68,0.36 0.67,0.83 -0.02,0.52 -0.04,3.15 -0.04,5.74 0,2.59 0.74,4.21 2.99,4.21 2.25,0 2.88,-1.55 2.88,-4.25 0,-2.56 0.04,-5.2 0.04,-5.56 0,-0.5 -0.11,-0.97 0.59,-0.97 h 0.74 c 0.67,0 0.7,0.36 0.68,0.83 -0.02,0.52 -0.05,4.88 -0.09,5.73 -0.14,3.53 -1.04,5.87 -4.84,5.87 -4.02,0 -4.9,-2.29 -4.97,-5.85 -0.05,-2.39 0.02,-5.24 0,-5.6 z"
               id="path11359" /><path
               class="cls-1"
               d="m 549.87,120.25 c -0.14,-0.5 0.05,-0.72 0.5,-0.72 h 0.54 c 0.67,0 0.7,0.45 0.79,0.7 0.18,0.5 2.83,8.64 3.17,10.08 H 555 c 0.34,-1.44 2.99,-9.51 3.17,-10.03 0.16,-0.52 0.18,-0.76 0.77,-0.76 h 0.7 c 0.34,0 0.59,0.23 0.45,0.68 -0.38,1.22 -3.38,10.1 -3.58,10.75 -0.16,0.49 -0.47,0.81 -1.06,0.81 h -1.12 c -0.63,0 -0.97,-0.34 -1.12,-0.88 -0.16,-0.58 -3.11,-9.85 -3.35,-10.64 z"
               id="path11361" /><path
               class="cls-1"
               d="m 563.31,120.74 c 0,-0.5 -0.23,-1.21 0.65,-1.21 h 6.66 c 0.5,0 0.58,0.25 0.58,0.65 v 0.52 c 0,0.41 -0.18,0.58 -0.61,0.58 h -5.28 l -0.04,3.62 c 1.46,0 4.16,0 4.61,-0.02 0.25,-0.02 0.49,0.13 0.49,0.49 v 0.65 c 0,0.38 -0.13,0.45 -0.45,0.45 -0.52,0 -3.12,-0.02 -4.63,0 l 0.05,3.56 c 1.44,0 4.72,-0.02 5.26,-0.05 0.41,-0.04 0.59,0.18 0.59,0.59 v 0.72 c 0,0.4 -0.09,0.49 -0.59,0.49 h -6.54 c -0.67,0 -0.68,-0.61 -0.67,-1.08 0.04,-1.19 -0.09,-9.6 -0.09,-9.96 z"
               id="path11363" /><path
               class="cls-1"
               d="m 574.78,120.72 c 0,-0.5 -0.05,-1.19 0.81,-1.19 h 3.71 c 3.01,0 4.57,1.66 4.57,4.07 0,1.91 -1.22,3.17 -2.74,3.71 l 2.02,2.59 c 0.29,0.41 0.61,0.41 1.06,0.41 0.27,1.21 -0.25,1.64 -1.08,1.64 -0.92,0 -1.24,-0.45 -1.64,-1.01 l -2.3,-3.33 h -2.47 c 0,0.47 -0.04,2.88 0,3.31 0.05,0.63 -0.11,0.85 -0.59,0.85 h -0.7 c -0.67,0 -0.67,-0.61 -0.67,-1.08 0.04,-1.19 0.02,-9.62 0.02,-9.97 z m 4.54,5.46 c 1.46,0 2.56,-0.92 2.56,-2.57 0,-1.26 -0.76,-2.61 -2.58,-2.61 h -2.61 c -0.04,1.08 0,4.5 0,5.19 h 2.63 z"
               id="path11365" /></g></g></g></clipPath><filter
       style="color-interpolation-filters:sRGB"
       inkscape:label="Invert"
       id="filter10716-4"
       x="0"
       y="0"
       width="1"
       height="1.0018565"><feColorMatrix
         values="1 0 0 0 0 0 1 0 0 0 0 0 1 0 0 -0.21 -0.72 -0.07 2 0 "
         result="fbSourceGraphic"
         id="feColorMatrix10714-9" /><feColorMatrix
         result="fbSourceGraphicAlpha"
         in="fbSourceGraphic"
         values="0 0 0 -1 0 0 0 0 -1 0 0 0 0 -1 0 0 0 0 1 0"
         id="feColorMatrix10750-3" /><feColorMatrix
         id="feColorMatrix10752-7"
         type="hueRotate"
         values="180"
         result="color1"
         in="fbSourceGraphic" /><feColorMatrix
         id="feColorMatrix10754-5"
         values="-1 0 0 0 1 0 -1 0 0 1 0 0 -1 0 1 -0.21 -0.72 -0.07 2 0 "
         result="color2" /></filter><filter
       style="color-interpolation-filters:sRGB;"
       inkscape:label="Invert"
       id="filter3530"
       x="0"
       y="0"
       width="1"
       height="1"><feColorMatrix
         type="hueRotate"
         values="180"
         result="color1"
         id="feColorMatrix3526" /><feColorMatrix
         values="-1 0 0 0 1 0 -1 0 0 1 0 0 -1 0 1 -0.21 -0.72 -0.07 2 0 "
         result="fbSourceGraphic"
         id="feColorMatrix3528" /><feColorMatrix
         result="fbSourceGraphicAlpha"
         in="fbSourceGraphic"
         values="0 0 0 -1 0 0 0 0 -1 0 0 0 0 -1 0 0 0 0 1 0"
         id="feColorMatrix3532" /><feColorMatrix
         id="feColorMatrix3534"
         type="hueRotate"
         values="180"
         result="color1"
         in="fbSourceGraphic" /><feColorMatrix
         id="feColorMatrix3536"
         values="-1 0 0 0 1 0 -1 0 0 1 0 0 -1 0 1 -0.21 -0.72 -0.07 2 0 "
         result="fbSourceGraphic" /><feColorMatrix
         result="fbSourceGraphicAlpha"
         in="fbSourceGraphic"
         values="0 0 0 -1 0 0 0 0 -1 0 0 0 0 -1 0 0 0 0 1 0"
         id="feColorMatrix3538" /><feColorMatrix
         id="feColorMatrix3540"
         type="hueRotate"
         values="180"
         result="color1"
         in="fbSourceGraphic" /><feColorMatrix
         id="feColorMatrix3542"
         values="-1 0 0 0 1 0 -1 0 0 1 0 0 -1 0 1 -0.21 -0.72 -0.07 2 0 "
         result="color2" /></filter></defs><g
     inkscape:label="Layer 1"
     inkscape:groupmode="layer"
     id="layer1"><g
       id="g13086"><g
         id="g13072"><path
           sodipodi:type="star"
           style="fill:#623c97;fill-opacity:1;stroke-width:0.411223;stroke-dasharray:none"
           id="path915"
           inkscape:flatsided="true"
           sodipodi:sides="3"
           sodipodi:cx="300.19058"
           sodipodi:cy="1344.314"
           sodipodi:r1="209.82256"
           sodipodi:r2="104.91128"
           sodipodi:arg1="0.52359878"
           sodipodi:arg2="1.5707963"
           inkscape:rounded="0.07"
           inkscape:randomized="0"
           d="m 481.90225,1449.2252 c -12.71982,22.0314 -350.70352,22.0314 -363.42333,0 -12.71982,-22.0313 156.27203,-314.7338 181.71166,-314.7338 25.43964,0 194.43148,292.7025 181.71167,314.7338 z"
           inkscape:transform-center-x="1.0403678e-05"
           inkscape:transform-center-y="-13.261776"
           transform="matrix(1.6425757,0,0,0.2528197,-194.63576,1085.2865)" /><rect
           style="fill:#623c97;fill-opacity:1;stroke-width:0.264999;stroke-dasharray:none"
           id="rect7505"
           width="607.7428"
           height="150.91325"
           x="-5.4213991"
           y="1451.0574" /></g><g
         id="g10905"
         transform="matrix(0.23460299,0,0,0.23460299,-47.1976,1476.2076)"
         style="fill:#9981bb;fill-opacity:1"><path
           class="a39cd96f-fcc4-44e2-b5da-a489e0ad244f"
           d="M 2972.84,488.66 2819.09,374.88 2700,392.3 2613,316.57 c -11.44,-22.72 -38.65,-72.4 -57.82,-72.4 -18.58,0 -50.43,34.66 -59.22,44.66 l -34.62,12.36 c -16.22,-20.18 -57.08,-68.67 -75.05,-68.67 -17.97,0 -57.44,37.4 -69.57,49.34 l -98,-5.77 -61,34.85 -19.23,-2.13 v -0.05 c -95.7,-39.4 -137.64,-102.3 -138.05,-102.93 l -1.63,-2.51 -39.19,-6 -189.75,-140.22 -82.71,3 -82.16,-26.46 -37.69,8.7 -47.65,-17.87 -62.86,35.92 -66.91,11.61 -114.52,61.7 -1.14,0.61 -86.85,104.22 -134.85,37.3 -0.77,0.21 L 987,312 c -48.77,-36.72 -92.72,-76.5 -121.2,-117.14 -4.59,-7.2 -21.9,-11.87 -47.8,-18.18 -9.56,-2.33 -18.6,-4.53 -23.09,-6.32 C 790.69,168.66 781,161 770.8,153 c -22,-17.38 -46.93,-37.06 -63.2,-37.06 -12,0 -58.68,38.62 -155,120.61 -51.91,44.18 -100.94,85.92 -120.92,98.85 -23,14.35 -107.13,32.2 -143.7,39.48 a 2.11,2.11 0 0 0 0.39,-0.41 l -3.66,0.28 a 1.72,1.72 0 0 0 0,0.79 c -8.38,1.65 -13.61,2.62 -13.86,2.67 l -0.83,0.22 c -1.77,0.65 -98.89,47.12 -241.62,100.35 -12.34,4.54 32.71,15.22 32.71,15.22 0,0 33.61,13.26 33.82,13.18 l 136.43,-52 a 2.25,2.25 0 0 1 2.91,1.23 l 13.73,21.4 a 2.25,2.25 0 0 0 2.34,1.38 l 29.33,-3.46 a 2.21,2.21 0 0 0 1.7,-1.14 l 34.91,-51.44 a 2.27,2.27 0 0 1 1.23,-1 l 65.9,-23.05 a 2.24,2.24 0 0 0 1.29,-1.16 l 17.24,-37 c 15.2,-4.43 27.94,-9.08 35.3,-13.66 15.92,-10.3 48.9,-39.48 87.09,-72.67 l -26.22,57 a 3.67,3.67 0 0 1 -0.58,0.87 l -40.33,45.01 a 3.78,3.78 0 0 0 -0.61,1 l -32.82,77 a 3.53,3.53 0 0 0 3,4.91 l 12.52,0.78 a 3.53,3.53 0 0 0 2.95,-1.28 l 60,-72.94 a 3.5,3.5 0 0 1 1,-0.84 l 130.29,-72.91 a 3.55,3.55 0 0 0 1.19,-1.09 L 720.06,187.4 a 3.52,3.52 0 0 0 0.53,-2.78 l -13.28,-58.29 c 0.09,0 0.21,-0.07 0.29,-0.08 12.67,0 38.16,20.13 56.77,34.83 11.78,9.3 21.08,16.64 26.74,18.91 1,0.39 2.15,0.79 3.39,1.19 l -15,89.08 a 2.43,2.43 0 0 0 0.06,1.07 l 14.21,46.54 a 2.34,2.34 0 0 1 -0.45,2.19 l -17.4,20.47 a 2.33,2.33 0 0 0 1.1,3.74 l 80.6,24.63 a 2.33,2.33 0 0 0 3,-2.16 L 861.73,330 a 2.3,2.3 0 0 0 -1,-2 l -35.05,-24.1 a 2.34,2.34 0 0 1 -0.89,-2.69 l 32,-91.91 101.87,106.41 a 5.26,5.26 0 0 1 1.09,1.7 l 43.16,108.09 a 5.26,5.26 0 0 0 4.35,3.29 l 14.11,1.51 a 5.3,5.3 0 0 0 4.69,-2 l 20,-25.1 a 5.28,5.28 0 0 1 7.83,-0.48 l 72.23,70.71 a 5.35,5.35 0 0 0 2.62,1.39 c 0,0 80.82,21.08 145,34.55 25.09,0 31.56,1 50.26,0.49 l 0.21,-7.44 c -8.08,-2.13 -145.81,-60.93 -241.74,-125.14 -27.92,-17.61 -56.36,-36.6 -83.61,-56.55 l 58,-32.23 136.14,-37.6 2,-0.57 9.64,-11.56 66.41,-25.77 36.62,-37 94.42,-0.84 110.65,-104.83 5.81,-29.78 2.29,-1.31 45.53,17.07 38,-8.77 80.89,26 79.5,-2.84 -7.22,28.86 101,100.72 101.55,12 -2.25,-1.72 33.17,5.11 c 7.89,11.08 42.2,55.19 110.9,90.85 l -0.6,1.5 c -3.46,3.08 -33.77,26.5 -236.05,117.27 l 1.22,2.73 -3.61,1.74 -30.53,40.24 161.66,-41.5 91.7,-94.64 c 13.11,-7.49 19.85,-12.1 23.31,-14.85 l 46.06,5.12 -65.7,98.55 58.24,119.39 52.39,-96.07 -2.91,-75.72 64.06,-17.47 -36.71,-62.93 97.56,5.72 2.12,-2.13 c 22.87,-22.86 53.17,-47.54 62.24,-47.54 a 11.15,11.15 0 0 1 4.77,1.95 l -58.64,117.29 17.47,-5.1 54.6,-45.13 51.78,1.42 0.55,0.68 46.95,-16.76 1.16,-1.28 c 17.25,-19.9 41.38,-41.37 50.26,-41.37 1.14,0 2.67,0.9 4.46,2.36 l -61.24,116.15 -16,145.6 63.52,-16.74 -1.67,-124.49 58.43,-55.08 93.1,81.08 115.2,-16.85 -35.23,43.26 173.3,54.93 15.73,11.64 z M 1396.26,131.48 1295.49,138.09 1394.34,84.87 1457.09,74 Z"
           transform="translate(-26.22,-24.47)"
           id="path10877"
           style="fill:#9981bb;fill-opacity:1" /><polygon
           class="a39cd96f-fcc4-44e2-b5da-a489e0ad244f"
           points="2437.29,397.48 2443.85,355.99 2368.86,392.38 2347.24,528.52 2403.81,514.69 2412.54,415.68 "
           id="polygon10879"
           style="fill:#9981bb;fill-opacity:1" /><polygon
           class="a39cd96f-fcc4-44e2-b5da-a489e0ad244f"
           points="1766.29,201.76 1668.01,92.56 1635.25,86.01 1731.35,260.73 1807.79,278.2 1853.43,342.88 1900.03,325.41 "
           id="polygon10881"
           style="fill:#9981bb;fill-opacity:1" /><polygon
           class="a39cd96f-fcc4-44e2-b5da-a489e0ad244f"
           points="1670.2,289.12 1694.22,286.94 1672.38,212.68 1554.44,64.17 1606.86,217.05 1654.91,230.15 "
           id="polygon10883"
           style="fill:#9981bb;fill-opacity:1" /><polygon
           class="a39cd96f-fcc4-44e2-b5da-a489e0ad244f"
           points="1480.19,77.27 1377.54,195.21 1331.68,188.66 1272.71,241.07 1370.99,236.71 1453.98,350.27 1473.64,341.54 1443.06,241.07 1475.82,238.89 1453.98,188.66 "
           id="polygon10885"
           style="fill:#9981bb;fill-opacity:1" /><polygon
           class="a39cd96f-fcc4-44e2-b5da-a489e0ad244f"
           points="1142.18,370.18 1198.45,356.82 1202.82,295.67 1253.05,269.46 1167.88,276.02 1165.69,321.88 1094.67,340.7 "
           id="polygon10887"
           style="fill:#9981bb;fill-opacity:1" /><path
           class="a39cd96f-fcc4-44e2-b5da-a489e0ad244f"
           d="m 750.22,408.16 a 1.91,1.91 0 0 1 -0.79,-0.94 l -23.72,-58.73 a 2,2 0 0 0 -3.46,-0.36 l -25.34,37.69 a 1.93,1.93 0 0 0 -0.25,1.68 l 17.49,56.22 a 2,2 0 0 0 1,1.2 l 66.64,31.52 a 2.06,2.06 0 0 0 0.91,0.18 l 69,-2.19 a 2,2 0 0 0 1,-3.64 z"
           transform="translate(-26.22,-24.47)"
           id="path10889"
           style="fill:#9981bb;fill-opacity:1" /><path
           class="a39cd96f-fcc4-44e2-b5da-a489e0ad244f"
           d="m 665,417.55 -63.56,14.24 a 1.46,1.46 0 0 0 -0.7,0.38 l -40.88,38.66 a 1.51,1.51 0 0 0 1.26,2.59 l 50.37,-7.67 a 1.43,1.43 0 0 0 0.73,-0.33 l 54.08,-45.25 a 1.5,1.5 0 0 0 -1.3,-2.62 z"
           transform="translate(-26.22,-24.47)"
           id="path10891"
           style="fill:#9981bb;fill-opacity:1" /></g></g><g
       id="g13068"><rect
         style="fill:#623c97;fill-opacity:1;stroke-width:0.288714;stroke-dasharray:none"
         id="rect8233"
         width="614.28644"
         height="238.84372"
         x="-8.6932192"
         y="-1.2269371" /><g
         id="g694"
         transform="matrix(0.902886,0,0,0.902886,71.651201,49.731434)"
         style="fill:#ffffff;fill-opacity:1"><g
           id="g748"
           style="fill:#ffffff;fill-opacity:1"><g
             id="fullLogo-41"
             inkscape:label="fullLogo-41"
             transform="translate(-205.22673,-16.94505)"
             style="fill:#ffffff;fill-opacity:1"><path
               style="color:#000000;display:inline;fill:#ffffff;-inkscape-stroke:none;fill-opacity:1"
               d="m 226.27344,61.609375 -30.2461,24.265625 -15.54492,3.173828 -5.61133,2.890625 14.20703,14.207027 12.85938,-7.531246 1.08008,-0.630859 1.23437,0.193359 9.09766,1.433594 7.55859,-6.658203 2.7461,-2.419922 2.29687,2.851563 5.79688,7.201174 8.96875,-6.349612 3.05664,-2.164062 1.95312,3.197265 5.05664,8.271489 8.45117,4.51953 1.94336,1.04101 14.01758,-14.015623 -17.5039,-9.986328 -15.19727,-14.740234 -6.96875,-0.564453 z m -0.0625,2.609375 8.49023,7.511719 6.91797,0.5625 14.86328,14.416015 15.44922,8.814453 -11.11719,11.117193 -0.63672,-0.33985 -7.97461,-4.26367 -4.77148,-7.810548 -3.06836,-5.019531 -4.80078,3.400391 -7.43555,5.263672 -4.62109,-5.740235 -3.60547,-4.476562 -4.3125,3.800781 -6.85352,6.037109 -8.17187,-1.287109 -1.93945,-0.304687 -1.69532,0.992187 -11.52734,6.751952 -11.18164,-11.183593 2.93359,-1.509765 15.74805,-3.216797 z"
               id="path6281" /></g><path
             id="fullLogo-42"
             data-name="fullLogo"
             d="m 17.749975,81.51785 6.5515,8.1367 1.1791,1.4643 1.5344,-1.0864 9.9067,-7.0142 4.436,7.259 0.2837,0.4641 0.48,0.2566 6.9179,3.7 -27.6965,27.7531 -30.7953997,-30.7953 8.328,-4.8771 10.0171998,1.5783 0.9282,0.1463 0.7050999,-0.6212 7.2244,-6.3642 m 0.2467,-2.8826 -8.7930999,7.7461 -10.7227998,-1.69 -11.1792003,6.5468 34.0424,34.0423 31.013,-31.0765 -9.2927,-4.97 -5.5519,-9.085 -11.6531,8.2508 -7.8629,-9.7648 z"
             style="fill:#ffffff;fill-opacity:1" /><path
             id="fullLogo-43"
             data-name="fullLogo"
             d="m 15.379575,22.33245 19.1172,6.3118 0.4369,0.1443 0.4561,-0.0612 10.187,-1.3664 18.3035,16.3156 0.43,0.3831 0.5678,0.096 9.327,1.5762 13.2982,10.6325 -16.2021,16.202 -15.505,-8.846 -14.4407,-14.0054 -1.1594,-1.1245 -0.5152,-0.5 -0.7155,-0.058 -1.61,-0.1306 -4.7835,-0.3881 -7.25,-6.4136 -2.84,-2.5124 -1.2622,-1.1166 -1.3145,1.0546 -2.9575,2.3728 -28.5519,22.9064 -14.106,2.8819 -0.608,0.1242 -0.27,0.0552 -0.2453,0.1264 -0.5515,0.2841 -4.2549,2.1914 -13.0197,-13.0192 5.7777,-4.6326 15.2433,-4.2872 0.5441,-0.153 0.3836,-0.4153 11.1762,-12.1 26.9143,-12.5285 m -0.1255,-2.1477 -27.99,13.0295 -11.4439,12.39 -15.6352,4.3974 -7.8371,6.2834 15.63,15.63 0.127,-0.0655 5.4255,-2.7945 0.5516,-0.2842 0.608,-0.1242 14.58,-2.9787 28.9294,-23.209 2.9576,-2.3728 2.84,2.5124 7.749,6.8552 5.4477,0.442 1.61,0.1305 1.1593,1.1245 14.622,14.1816 17.0507,9.7278 18.8619,-18.8619 -15.4484,-12.352 -9.8381,-1.6625 -18.9895,-16.9271 -11.0977,1.4884 -19.87,-6.56 z"
             style="fill:#ffffff;fill-opacity:1" /></g><g
           id="g754"
           style="fill:#ffffff;fill-opacity:1"><path
             id="fullLogo-37"
             data-name="fullLogo"
             d="m 199.04637,60.234076 c -4.7468,0.2087 -16.3147,44.870004 -24.6574,45.236604 -4.9627,0.2182 -2.0577,-12.301804 1.6334,-23.723704 2.7861,-8.6217 5.9078,-15.5872 5.8448,-17.0218 -0.1467,-3.3353 -6.2526,-4.5456 -9.2083,-4.2808 -4.0683,0.3645 -12.9844,25.9142 -13.11,38.34 -0.1268,12.514304 4.4171,16.525104 11.0876,16.231904 7.6651,-0.337 13.4527,-9.8046 16.0446,-14.9551 a 0.13,0.13 0 0 1 0.2442,0.079 c -1.17,7.94 -5.1126,25.5224 -17.1482,26.0515 -13.4706,0.5922 -17.8319,-10.113 -18.9062,-15.26 -0.9914,-4.75 0.31,-7.3982 -0.5511,-7.9108 -0.8611,-0.5126 -5.2509,0.2178 -7.3012,3.6854 -5.5072,9.3146 6.3239,30.2964 26.72,29.4 25.9834,-1.1431 25.5681,-23.3631 31.1496,-46.103104 3.5894,-14.6237 7.71,-24.612 7.6656,-25.6273 -0.1142,-2.5938 -5.431,-4.321 -9.5074,-4.1418 z"
             inkscape:label="fullLogo-37"
             style="fill:#ffffff;fill-opacity:1" /><path
             id="fullLogo-38"
             data-name="fullLogo"
             d="m 550.03847,63.464376 c 0,-2.0481 -6.969,-3.8443 -8.8773,-3.8443 -4.35,0 -10.3213,7.1268 -15.3571,16.04 0,0 -15.7978,31.764704 -27.6185,31.764704 -3.7128,0 -4.8757,-4.0132 -4.78,-9.074504 0.1667,0.0158 0.3209,0.0245 0.4574,0.0245 8.0458,0 17.9149,-6.7022 21.5294,-18.324 4.3583,-14.0137 -0.4307,-21.2695 -10.0683,-21.2695 -13.144,0 -18.1269,12.2854 -22.9284,24.83 -4.64,12.1222 -6.6762,22.250004 -11.1634,22.250004 -4.3007,0 1.49,-21.733804 4.2372,-31.121104 2.6408,-9.0252 14,-34.8318 14,-36.3666 0,-3.0722 -7.6151,-4.62 -11.0107,-4.62 -3.33,0 -10.3765,20.8492 -12.7195,28.0783 a 11.48,11.48 0 0 0 -8.3316,-3.2723 c -14.2266,0 -19.921,10.9905 -26.5195,28.4253 -2.3675,6.2555 -9.6982,18.920904 -12.8808,18.920904 -3.1826,0 -1.2516,-9.942404 1.8775,-19.140004 3.0734,-9.0339 8.53,-17.3991 8.53,-18.9214 0,-3.0722 -6.9939,-4.62 -9.3834,-4.62 a 5.734,5.734 0 0 0 -3.5142,1.8927 c -1.9273,-2.397 -6.0115,-6.513 -11.3349,-6.513 -14.2266,0 -19.7463,10.9906 -26.3448,28.4253 -2.3675,6.2556 -11.6061,20.140004 -18.604,20.140004 -6.9979,0 -5.6892,-15.113404 -3.4135,-21.676204 2.6335,-7.5953 9.2166,-17.9213 14.5076,-17.9213 3.2429,0 1.1829,5.9737 0.25,7.6845 a 27.6912,27.6912 0 0 1 -3.6348,5.0558 c -2.33,2.4453 -4.3619,2.7466 -4.3153,3.4424 0.0466,0.6958 2.2947,2.419 5.0927,2.2319 4.063,-0.2716 9.9346,-8.0032 9.9346,-15.001 0,-4.95 -1.1948,-12.11 -11.3521,-12.11 -10.2408,0 -22.1049,11.0742 -25.5185,31.2143 -3.4136,20.140104 9.7446,24.843804 16.679,24.843804 8.6006,0 14.3019,-6.7193 19.2628,-14.3682 0.77,5.2537 3.1551,13.9541 10.5036,13.9541 6.01,0 12.6464,-9.3112 16.4247,-15.561904 1.0672,6.245604 3.7725,15.383204 10.4671,15.383204 7.2552,0 11.19,-6.83 15.7383,-14.504204 0.6639,5.117004 2.9274,14.550904 10.5951,14.638504 7.2422,0.0828 13.3313,-10.7314 16.3725,-17.336904 0.9,6.591604 3.4453,17.158304 10.5194,17.158304 7.3236,0 10.08,-5.2709 14.4917,-13.5685 0.8179,5.948 3.7949,14.2969 14.065,14.2969 15.99,0 28.8765,-21.680004 34.85,-33.542404 a 84.5793,84.5793 0 0 1 5.2431,-8.6933 0.0392,0.0392 0 0 1 0.07,0.0339 c -0.4209,1.69 -1.0628,5.4348 -0.8872,12.1643 -0.1787,8.784 1.3774,32.720504 -6.0014,32.720504 -3.638,0 -4.8717,-4.5984 -5.0286,-8.6078 -0.0938,-2.3969 0.2681,-4.9761 0.01,-5.1455 -0.6894,-0.4526 -4.3181,-0.005 -6.1384,2.7671 -2.7786,4.2318 1.7655,18.7661 13.2883,18.7661 19.9257,0 16.782,-20.537 16.7187,-42.146304 -0.0231,-7.9375 2.0105,-15.7808 2.0105,-19.8771 z m -147.8728,22.4474 c -4.9949,9.5387 -10.5489,19.199404 -13.313,19.199404 -7.8512,0 7.4842,-43.086704 16.8972,-40.022204 7.6243,2.4822 -0.7142,15.3421 -3.5842,20.8228 z m 53.7075,0.2634 c -4.9949,9.5387 -9.7287,19.457304 -13.7687,19.106704 -7.8218,-0.6789 6.5978,-42.759104 16.1113,-40.022204 6.2548,1.7994 0.5274,15.4347 -2.3426,20.9155 z m 52.8072,-18.4333 c 2.1852,0 3.6828,3.5432 -0.2856,12.2015 -3.755,8.1926 -10.5067,12.519 -14.2617,12.519 -0.0572,0 -0.114,0 -0.1709,-0.001 a 67.6849,67.6849 0 0 1 1.58,-7.31 c 2.2861,-8.3288 9.2126,-17.4095 13.1382,-17.4095 z"
             style="fill:#ffffff;fill-opacity:1" /><path
             id="fullLogo-39"
             data-name="fullLogo"
             d="m 328.86027,58.529176 c -4.35,0 -10.234,7.1267 -15.27,16.04 -7.559,13.3791 -15.1745,31.428804 -18.9493,31.428804 -2.56,0 -1.077,-9.942404 2.0521,-19.140004 3.0735,-9.034 8.53,-17.3992 8.53,-18.9215 0,-3.0722 -6.9939,-4.62 -9.3834,-4.62 a 5.734,5.734 0 0 0 -3.5142,1.8927 c -1.9273,-2.3971 -6.0114,-6.513 -11.3348,-6.513 -14.8491,0 -19.44,11.7513 -26.0385,29.186 -2.2186,5.291 -13.8604,22.216004 -24.9326,22.216004 -5.3206,0 -8.246,-5.1484 -7.49,-14.837704 1.7747,-22.7438 21.0726,-49.8917 30.3461,-49.8917 2.5135,0 1.2632,5.4979 1.2632,5.4979 a 37.1692,37.1692 0 0 1 -9.2963,18.1036 c -3.347,3.5128 -6.266,3.9456 -6.1991,4.9452 0.0669,0.9996 3.2964,3.4749 7.3158,3.2062 7.5513,-0.5048 15.423,-17.06 15.423,-25.5654 0,-1.507 1.0048,-16.4758 -12.5545,-16.4758 -19.04,0 -38.1906,29.4364 -39.6522,57.6374 -0.5444,10.505304 2.52,26.997604 17.3689,26.997604 11.3774,0 21.2142,-9.783 27.2149,-18.91 0.7159,5.2674 2.9991,13.806 10.279,13.806 6.4591,0 12.8212,-9.0358 16.4469,-15.280004 1.0763,6.234804 3.7787,15.101904 10.4449,15.101904 5.4162,0 9.7167,-3.4787 13.3289,-8.3887 1.6154,4.3691 5.1736,8.6347 12.9119,8.6347 16.2264,0 17.7824,-10.844 18.2945,-32.690904 0.1859,-7.9344 2.2723,-16.2939 2.2723,-19.6142 -2e-4,-2.049 -6.9693,-3.8451 -8.8775,-3.8451 z m -48.8537,27.5626 c -4.9949,9.5387 -10.5488,19.199404 -13.3129,19.199404 -7.8513,0 7.356,-42.661204 16.8972,-40.022204 8.0219,2.2188 -0.7143,15.3421 -3.5843,20.8228 z m 34.5087,21.418204 c -4.892,0 -6.34,-3.8945 -6.7134,-7.0328 3.61,-6.416404 6.5273,-13.756604 9.3729,-19.038404 3.4224,-6.3525 5.918,-9.5694 7.4806,-11.1819 a 0.0667,0.0667 0 0 1 0.1137,0.0609 86.0706,86.0706 0 0 0 -1.6206,11.59 c -0.64,15.3615 -2.5701,25.602204 -8.6332,25.602204 z"
             style="fill:#ffffff;fill-opacity:1" /><path
             id="fullLogo-40"
             data-name="fullLogo"
             d="m 143.84757,32.778176 c -21.8856,0 -47.107999,13.47 -47.107999,26.61 0,5.6192 3.631899,8.1823 5.029299,8.1823 1.3974,0 1.7283,-4.1029 6.3061,-9.0881 6.6187,-7.2078 19.5354,-16.136 35.9814,-16.136 10.2273,0 11.04,6.7211 11.04,10.43 0,11.1875 -17.9348,26.61 -27.8178,27.688 4.7947,-12.5629 10.2862,-23.3852 10.2862,-24.3936 0,-2.4111 -8.114,-4.2658 -11.1283,-4.2658 -3.008,0 -9.1485,17.6345 -13.977,34.0552 -3.8053,12.9413 -6.6767,25.131804 -6.7958,27.335704 -0.1079,1.9986 3.9195,6.1782 9.1127,6.1782 2.099,0 4.2437,-13.0647 8.4332,-27.013204 0.0281,-0.002 0.0547,-0.003 0.0831,-0.006 17.7506,-1.3655 41.449,-17.104 41.449,-39.4376 1e-4,-14.3603 -12.2501,-20.1391 -20.8941,-20.1391 z"
             style="fill:#ffffff;fill-opacity:1" /></g></g></g><text
       xml:space="preserve"
       style="font-size:50.8002px;line-height:0;fill:#000000;fill-opacity:1;stroke:#000000;stroke-width:1.803;stroke-dasharray:none;stroke-opacity:1"
       x="294.70575"
       y="460.9538"
       id="text4125"><tspan
         sodipodi:role="line"
         id="tspan4123"
         style="font-style:normal;font-variant:normal;font-weight:normal;font-stretch:normal;font-size:88.9px;line-height:1.25;font-family:brevia;-inkscape-font-specification:brevia;text-align:center;writing-mode:lr-tb;text-anchor:middle;stroke-width:1.803"
         x="294.70575"
         y="460.9538">Reminder:</tspan><tspan
         sodipodi:role="line"
         style="font-style:normal;font-variant:normal;font-weight:normal;font-stretch:normal;font-size:50.8002px;line-height:1.5;font-family:brevia;-inkscape-font-specification:brevia;text-align:center;writing-mode:lr-tb;text-anchor:middle;stroke-width:1.803"
         x="294.70575"
         y="543.18652"
         id="tspan2453">All attendees, </tspan><tspan
         sodipodi:role="line"
         style="font-style:normal;font-variant:normal;font-weight:normal;font-stretch:normal;font-size:50.8002px;line-height:1.5;font-family:brevia;-inkscape-font-specification:brevia;text-align:center;writing-mode:lr-tb;text-anchor:middle;stroke-width:1.803"
         x="294.70575"
         y="619.38684"
         id="tspan2457">speakers, and staff </tspan><tspan
         sodipodi:role="line"
         style="font-style:normal;font-variant:normal;font-weight:normal;font-stretch:normal;font-size:50.8002px;line-height:1.5;font-family:brevia;-inkscape-font-specification:brevia;text-align:center;writing-mode:lr-tb;text-anchor:middle;stroke-width:1.803"
         x="294.70575"
         y="695.5871"
         id="tspan2483">are expected to </tspan><tspan
         sodipodi:role="line"
         style="font-style:normal;font-variant:normal;font-weight:normal;font-stretch:normal;font-size:50.8002px;line-height:1.5;font-family:brevia;-inkscape-font-specification:brevia;text-align:center;writing-mode:lr-tb;text-anchor:middle;stroke-width:1.803"
         x="294.70575"
         y="771.78741"
         id="tspan2459">adhere to our</tspan><tspan
         sodipodi:role="line"
         style="font-style:normal;font-variant:normal;font-weight:normal;font-stretch:normal;font-size:50.8002px;line-height:1.5;font-family:brevia;-inkscape-font-specification:brevia;text-align:center;writing-mode:lr-tb;text-anchor:middle;stroke-width:1.803"
         x="294.70575"
         y="847.98773"
         id="tspan2461">Code of Conduct</tspan><tspan
         sodipodi:role="line"
         style="font-style:normal;font-variant:normal;font-weight:normal;font-stretch:normal;font-size:50.8002px;line-height:1.5;font-family:brevia;-inkscape-font-specification:brevia;text-align:center;writing-mode:lr-tb;text-anchor:middle;stroke-width:1.803"
         x="294.70575"
         y="924.18805"
         id="tspan2463">and</tspan><tspan
         sodipodi:role="line"
         style="font-style:normal;font-variant:normal;font-weight:normal;font-stretch:normal;font-size:50.8002px;line-height:1.5;font-family:brevia;-inkscape-font-specification:brevia;text-align:center;writing-mode:lr-tb;text-anchor:middle;stroke-width:1.803"
         x="294.70575"
         y="1000.3883"
         id="tspan2465">Health &amp; Safety Policy</tspan><tspan
         sodipodi:role="line"
         style="font-style:normal;font-variant:normal;font-weight:normal;font-stretch:normal;font-size:50.8002px;line-height:1.5;font-family:brevia;-inkscape-font-specification:brevia;text-align:center;writing-mode:lr-tb;text-anchor:middle;stroke-width:1.803"
         x="294.70575"
         y="1076.5886"
         id="tspan3559" /><tspan
         sodipodi:role="line"
         style="font-style:normal;font-variant:normal;font-weight:normal;font-stretch:normal;font-size:50.8002px;line-height:1.5;font-family:brevia;-inkscape-font-specification:brevia;text-align:center;writing-mode:lr-tb;text-anchor:middle;stroke-width:1.803"
         x="294.70575"
         y="1152.7889"
         id="tspan3405">pycascades.com/coc/</tspan><tspan
         sodipodi:role="line"
         style="font-style:normal;font-variant:normal;font-weight:normal;font-stretch:normal;font-size:50.8002px;line-height:1.5;font-family:brevia;-inkscape-font-specification:brevia;text-align:center;writing-mode:lr-tb;text-anchor:middle;stroke-width:1.803"
         x="302.83377"
         y="1228.9893"
         id="tspan3341"> </tspan></text></g></svg>
